<?xml version="1.0" encoding="utf-8"?>
<!-- Generator: Adobe Illustrator 19.1.0, SVG Export Plug-In . SVG Version: 6.00 Build 0)  -->
<svg version="1.1" id="Layer_1" xmlns="http://www.w3.org/2000/svg" xmlns:xlink="http://www.w3.org/1999/xlink" x="0px" y="0px"
	 viewBox="0 0 612 792" style="enable-background:new 0 0 612 792;" xml:space="preserve">
<style type="text/css">
	.st0{fill:#FFFFFF;}
	.st1{fill:#FE6D6D;}
</style>
<rect x="249" y="370" class="st0" width="117" height="81"/>
<g>
	<g>
		<path class="st1" d="M309.2,526c-25.5,0.2-46.8-6.3-66.1-19.2c-19.9-13.3-34.3-31.1-43.2-53.4c-4.8-12-7.4-24.4-8-37.3
			c-0.5-11.3,0.5-22.4,3.3-33.4c4.3-17.1,12.1-32.5,23.5-46c11.4-13.5,25.2-23.8,41.3-31.1c6.5-2.9,13.3-5.3,20.3-6.8
			c0.6-0.1,1.4-0.6,1.9-0.1c0.6,0.6-0.1,1.3-0.3,1.8c-2.6,5.5-5.3,10.9-7.8,16.4c-0.5,1-1,1.6-2.1,2c-19.4,7.5-35,20-46.7,37.1
			c-7.1,10.4-11.9,22-14.5,34.4c-1.4,6.6-2.2,13.3-2.2,20c0,9.6,1.3,19,4.1,28.2C217.6,455,226,469,238,480.9
			c1.4,1.3,2.5,1.9,4.6,1.4c16.2-4.1,32.8-5.6,49.5-4.5c20.8,1.2,40.7,6.1,59.5,15.1c5.9,2.8,5.9,2.9,11.3-0.9
			c16.4-11.5,28.5-26.6,35.9-45.2c4-10.2,6.1-20.8,6.5-31.8c1-24.2-6.2-45.7-20.9-64.7c-10.4-13.4-23.7-23.5-39.4-30
			c-1.6-0.6-2.1-1.4-1.8-3c0.9-4.2,1.8-8.4,2.6-12.7c0.3-1.7,1.2-1.9,2.6-1.3c12.1,4.8,23.3,11.3,33.3,19.8
			c14.1,12,24.7,26.6,31.9,43.7c5.2,12.4,8,25.2,8.6,38.7c0.4,9.9-0.3,19.6-2.2,29.2c-2.5,12.3-7.1,23.8-13.4,34.6
			c-5,8.7-11.1,16.6-18.3,23.6c-12.7,12.4-27.4,21.7-44.4,27.3C331.8,524.1,319.7,526.3,309.2,526z"/>
		<path class="st1" d="M323.6,244.7c0.6,2.8-0.5,4.8-0.9,6.9c-2.4,10.9-5,21.7-7.5,32.5c-1,4.5-2,9.1-3.1,13.6
			c-0.3,1.4-0.2,2.2,1.6,2.1c5.8-0.4,11.6-0.6,17.4-1c1.8-0.1,2.2,0.4,1.9,2.1c-1.2,5.3-2.2,10.6-3.4,15.8
			c-1.2,5.4-2.5,10.8-3.7,16.3c-0.7,3.2-1.4,6.3-2.1,9.5c-0.4,1.7,0.1,2.5,2,2.7c3.5,0.5,7,1.3,10.5,2c1.1,0.2,1.6,0.8,1.5,1.9
			c-0.2,1.8-0.4,3.6-0.6,5.4c-0.2,1.3,0.2,2.1,1.7,2.5c14.1,3.3,27.5,8.7,40.4,15.3c3.7,1.9,3.8,1.9,3.4,6
			c-0.9,7.8-1.8,15.7-2.7,23.5c0,0.4-0.1,0.8-0.1,1.2c-0.2,3.5,0,3.7,3.4,3.9c2.1,0.2,4.1,0.4,6.2,0.6c1.6,0.2,2.2,0.7,2,2.6
			c-1,8.3-1.8,16.7-2.6,25c-0.3,2.9-0.3,3-3.3,2.7c-2.3-0.2-4.7,0-6.9-0.7c-1.9-0.5-2.5,0.6-2.6,2.3c-0.4,6.3-1.4,12.6-1.9,18.8
			c-0.2,2.7-1.4,3.3-3.6,4c-11.6,3.3-23.5,5.4-35.5,6.3c-9.7,0.8-19.5,0.8-29.2,0c-12.9-1.1-25.7-3.4-38.2-7.1
			c-12.1-3.7-23.8-8.5-34.9-14.5c-1.3-0.7-1.7-1.4-1.6-2.7c0.4-4,0.7-8.1,1.3-12.1c0.5-2.9,0.5-5.8,0.8-8.7c0.1-1.2-0.4-1.6-1.5-1.8
			c-2.6-0.3-5.1-1-7.7-0.9c-1.8,0-2.4-0.7-2.2-2.6c1-8.7,1.9-17.3,2.7-26c0.2-1.8,0.9-2.3,2.6-2.1c2.5,0.4,4.9,0.6,7.4,0.9
			c1.8,0.3,2.4-0.5,2.6-2.3c0.9-9.4,2-18.8,2.9-28.2c0.2-1.6,1.4-1.9,2.4-2.1c8.7-2.2,17.4-4.3,26.3-5.4c6.2-0.8,12.4-1.1,18.6-1.7
			c1.3-0.1,1.8-0.6,1.8-1.8c0-1.1,0.3-2.1,0.5-3.2c0.7-4,0.7-4.1,4.7-4c2.4,0,4.8-0.2,7.2,0.4c1.3,0.3,2.1-0.2,2.6-1.6
			c2.6-7.8,5.3-15.6,7.8-23.4c0.8-2.4,0.3-2.7-2.2-2.6c-6.2,0.5-12.4,0.8-18.7,1.2c-2.3,0.1-1.4-1.3-0.9-2.3
			c3.8-7.9,7.6-15.7,11.3-23.6c5.6-11.7,11.2-23.4,16.7-35.1C319.9,252,321.7,248.6,323.6,244.7z M320.8,449
			c10.7,0.4,21.4-1.2,32.2-3c1.8-0.3,2.3-1.4,2.5-2.9c0.8-7.3,1.7-14.7,2.4-22c1.1-10.7,2-21.5,3.3-32.2c0.3-2.2-0.4-3-2.1-3.7
			c-9.3-3.9-18.7-7.1-28.5-9.3c-11.1-2.6-22.2-3.9-33.6-4.2c-11.1-0.3-22.1,0.7-33,2.5c-4.7,0.8-4.8,0.7-5.5,5.5
			c-0.2,1.5-0.3,3-0.5,4.5c-0.7,7.3-1.5,14.5-2.2,21.8c-0.9,8.6-1.8,17.2-2.9,25.7c-0.3,2.3,0.6,3.4,2.7,4.3c8.9,3.7,18,6.9,27.4,9
			C295.3,447.5,307.8,449.4,320.8,449z"/>
		<path class="st1" d="M295.4,415.2c-3.2,0.1-4.9-1-6.4-2.8c-3.8-4.5-3.9-4.5-8.7-0.9c-3.3,2.5-6.2,2.4-8.7-0.1
			c-2.7-2.6-2.6-6.8,0.3-9.2c2.3-1.9,4.7-3.7,7.2-5.4c4.3-3,10.3-2.5,14,1.2c2.2,2.2,4.3,4.7,6.2,7.2c1.6,2,2,4.3,0.7,6.8
			C298.8,414.1,297,415.1,295.4,415.2z"/>
		<path class="st1" d="M329.1,399.5c3.3,0.3,5.9,1,7.9,3.3c1.9,2.2,4,4.3,5.8,6.5c2.4,3,2.2,6.6-0.4,9c-2.8,2.5-6.1,2.2-9-0.8
			c-0.8-0.8-1.5-1.6-2.2-2.4c-2.2-2.7-2.2-2.7-5.1-0.5c-1.2,1-2.4,2-3.9,2.7c-2.6,1.2-5.5,0.6-7.2-1.5c-1.9-2.3-2.3-5.6-0.4-7.6
			c3.7-3.7,7.5-7.3,12.9-8.6C328.1,399.6,328.8,399.5,329.1,399.5z"/>
	</g>
</g>
</svg>
